# MagicaVoxel @ Ephtracy

# group
o 

# material
mtllib Mountain.mtl
usemtl palette

# normals
vn -1 0 0
vn 1 0 0
vn 0 0 1
vn 0 0 -1
vn 0 -1 0
vn 0 1 0

# texcoords
vt 0.369141 0.5
vt 0.958984 0.5
vt 0.982422 0.5

# verts
v -0.5 0 0.5
v -0.5 0 -0.5
v -0.5 0.9 0.5
v -0.5 0.9 -0.5
v -0.5 1 0.5
v -0.5 1 0.3
v -0.5 1 0
v -0.5 1 -0.5
v -0.5 1.1 0.3
v -0.5 1.1 0
v -0.4 1 0.4
v -0.4 1 0.3
v -0.4 1 0
v -0.4 1 -0.4
v -0.4 1.1 0.4
v -0.4 1.1 0.3
v -0.4 1.1 0
v -0.4 1.1 -0.4
v -0.4 1.2 0.3
v -0.4 1.2 0.2
v -0.4 1.2 0.1
v -0.4 1.4 0.1
v -0.4 1.4 0
v -0.4 1.5 0.2
v -0.4 1.5 0
v -0.3 1.1 0.4
v -0.3 1.1 0.3
v -0.3 1.1 0
v -0.3 1.1 -0.3
v -0.3 1.2 0.4
v -0.3 1.2 0.3
v -0.3 1.2 0.2
v -0.3 1.2 -0.2
v -0.3 1.2 -0.3
v -0.3 1.3 0.3
v -0.3 1.3 0.2
v -0.3 1.4 0.3
v -0.3 1.4 0.2
v -0.3 1.4 0
v -0.3 1.4 -0.1
v -0.3 1.4 -0.2
v -0.3 1.5 0.3
v -0.3 1.5 0.2
v -0.3 1.5 0.1
v -0.3 1.5 0
v -0.3 1.5 -0.1
v -0.3 1.6 0.2
v -0.3 1.6 0.1
v -0.2 1.2 0.4
v -0.2 1.2 0.3
v -0.2 1.2 -0.2
v -0.2 1.2 -0.3
v -0.2 1.3 0.3
v -0.2 1.3 0.2
v -0.2 1.3 -0.2
v -0.2 1.3 -0.3
v -0.2 1.4 0.4
v -0.2 1.4 0.3
v -0.2 1.4 0.2
v 0 1.1 -0.3
v 0 1.1 -0.4
v 0 1.2 -0.3
v 0 1.2 -0.4
v 0.1 1.2 -0.2
v 0.1 1.2 -0.3
v 0.1 1.3 -0.2
v 0.1 1.3 -0.3
v 0.2 1.1 0.4
v 0.2 1.1 0.3
v 0.2 1.2 0.3
v 0.2 1.2 0.2
v 0.2 1.3 0.4
v 0.2 1.3 0.3
v 0.2 1.3 0.2
v -0.1 1.2 -0.2
v -0.1 1.2 -0.3
v -0.1 1.3 -0.2
v -0.1 1.3 -0.3
v 0.1 1.1 0.4
v 0.1 1.1 0.3
v 0.1 1.1 -0.3
v 0.1 1.1 -0.4
v 0.1 1.2 0.4
v 0.1 1.2 0.3
v 0.1 1.2 0.2
v 0.1 1.2 -0.3
v 0.1 1.2 -0.4
v 0.1 1.3 0.3
v 0.1 1.3 0.2
v 0.1 1.3 -0.1
v 0.1 1.3 -0.2
v 0.1 1.4 0.4
v 0.1 1.4 0.3
v 0.1 1.4 0.2
v 0.1 1.4 0
v 0.1 1.4 -0.1
v 0.1 1.4 -0.2
v 0.1 1.5 0.3
v 0.1 1.5 0.2
v 0.1 1.5 0.1
v 0.1 1.5 0
v 0.1 1.5 -0.1
v 0.1 1.6 0.2
v 0.1 1.6 0.1
v 0.2 1.2 -0.1
v 0.2 1.2 -0.3
v 0.2 1.3 0.3
v 0.2 1.3 0.1
v 0.2 1.3 0
v 0.2 1.3 -0.1
v 0.2 1.3 -0.3
v 0.2 1.4 0.3
v 0.2 1.4 0.2
v 0.2 1.4 0.1
v 0.2 1.4 0
v 0.2 1.4 -0.1
v 0.2 1.5 0.2
v 0.2 1.5 0
v 0.3 1.1 0.4
v 0.3 1.1 0.2
v 0.3 1.1 -0.2
v 0.3 1.1 -0.3
v 0.3 1.2 0.2
v 0.3 1.2 0
v 0.3 1.2 -0.2
v 0.3 1.2 -0.3
v 0.3 1.3 0.4
v 0.3 1.3 0.1
v 0.3 1.3 0
v 0.3 1.4 0.1
v 0.3 1.4 0
v 0.4 1 0.4
v 0.4 1 -0.4
v 0.4 1.1 0.4
v 0.4 1.1 0.2
v 0.4 1.1 -0.2
v 0.4 1.1 -0.4
v 0.4 1.2 0.2
v 0.4 1.2 0
v 0.4 1.2 -0.1
v 0.4 1.2 -0.2
v 0.4 1.3 0
v 0.4 1.3 -0.1
v 0.5 0 0.5
v 0.5 0 -0.5
v 0.5 0.9 0.5
v 0.5 0.9 -0.5
v 0.5 1 0.5
v 0.5 1 -0.5
v -0.5 0 0.5
v -0.5 0.9 0.5
v -0.5 1 0.5
v 0.5 0 0.5
v 0.5 0.9 0.5
v 0.5 1 0.5
v -0.4 1 0.4
v -0.4 1.1 0.4
v -0.3 1.1 0.4
v -0.3 1.2 0.4
v -0.2 1.1 0.4
v -0.2 1.2 0.4
v -0.2 1.4 0.4
v -0.1 1.1 0.4
v -0.1 1.2 0.4
v 0.1 1.1 0.4
v 0.1 1.2 0.4
v 0.1 1.4 0.4
v 0.2 1.1 0.4
v 0.2 1.3 0.4
v 0.3 1.1 0.4
v 0.3 1.3 0.4
v 0.4 1 0.4
v 0.4 1.1 0.4
v -0.5 1 0.3
v -0.5 1.1 0.3
v -0.4 1 0.3
v -0.4 1.1 0.3
v -0.4 1.2 0.3
v -0.3 1.1 0.3
v -0.3 1.2 0.3
v -0.3 1.3 0.3
v -0.3 1.4 0.3
v -0.3 1.5 0.3
v -0.2 1.2 0.3
v -0.2 1.3 0.3
v -0.2 1.4 0.3
v 0.1 1.1 0.3
v 0.1 1.2 0.3
v 0.1 1.3 0.3
v 0.1 1.4 0.3
v 0.1 1.5 0.3
v 0.2 1.1 0.3
v 0.2 1.2 0.3
v 0.2 1.3 0.3
v 0.2 1.4 0.3
v -0.4 1.2 0.2
v -0.4 1.5 0.2
v -0.3 1.2 0.2
v -0.3 1.3 0.2
v -0.3 1.4 0.2
v -0.3 1.5 0.2
v -0.3 1.6 0.2
v -0.2 1.3 0.2
v -0.2 1.4 0.2
v 0.1 1.2 0.2
v 0.1 1.3 0.2
v 0.1 1.4 0.2
v 0.1 1.5 0.2
v 0.1 1.6 0.2
v 0.2 1.2 0.2
v 0.2 1.3 0.2
v 0.2 1.4 0.2
v 0.2 1.5 0.2
v 0.3 1.1 0.2
v 0.3 1.2 0.2
v 0.4 1.1 0.2
v 0.4 1.2 0.2
v 0.2 1.3 0.1
v 0.2 1.4 0.1
v 0.3 1.3 0.1
v 0.3 1.4 0.1
v 0.3 1.2 0
v 0.3 1.3 0
v 0.4 1.2 0
v 0.4 1.3 0
v -0.3 1.5 0.1
v -0.3 1.6 0.1
v 0.1 1.5 0.1
v 0.1 1.6 0.1
v -0.5 1 0
v -0.5 1.1 0
v -0.4 1 0
v -0.4 1.1 0
v -0.4 1.4 0
v -0.4 1.5 0
v -0.3 1.1 0
v -0.3 1.4 0
v -0.3 1.5 0
v 0.1 1.4 0
v 0.1 1.5 0
v 0.2 1.3 0
v 0.2 1.4 0
v 0.2 1.5 0
v 0.3 1.3 0
v 0.3 1.4 0
v -0.3 1.4 -0.1
v -0.3 1.5 -0.1
v -0.1 1.4 -0.1
v 0.1 1.3 -0.1
v 0.1 1.4 -0.1
v 0.1 1.5 -0.1
v 0.2 1.2 -0.1
v 0.2 1.3 -0.1
v 0.2 1.4 -0.1
v 0.4 1.2 -0.1
v 0.4 1.3 -0.1
v -0.3 1.2 -0.2
v -0.3 1.4 -0.2
v -0.2 1.2 -0.2
v -0.2 1.3 -0.2
v -0.1 1.2 -0.2
v -0.1 1.3 -0.2
v -0.1 1.4 -0.2
v 0.1 1.2 -0.2
v 0.1 1.3 -0.2
v 0.1 1.4 -0.2
v 0.3 1.1 -0.2
v 0.3 1.2 -0.2
v 0.4 1.1 -0.2
v 0.4 1.2 -0.2
v -0.3 1.1 -0.3
v -0.3 1.2 -0.3
v -0.2 1.2 -0.3
v -0.2 1.3 -0.3
v -0.1 1.2 -0.3
v -0.1 1.3 -0.3
v 0 1.1 -0.3
v 0 1.2 -0.3
v 0.1 1.1 -0.3
v 0.1 1.2 -0.3
v 0.1 1.3 -0.3
v 0.2 1.2 -0.3
v 0.2 1.3 -0.3
v 0.3 1.1 -0.3
v 0.3 1.2 -0.3
v -0.4 1 -0.4
v -0.4 1.1 -0.4
v 0 1.1 -0.4
v 0 1.2 -0.4
v 0.1 1.1 -0.4
v 0.1 1.2 -0.4
v 0.4 1 -0.4
v 0.4 1.1 -0.4
v -0.5 0 -0.5
v -0.5 0.9 -0.5
v -0.5 1 -0.5
v 0.5 0 -0.5
v 0.5 0.9 -0.5
v 0.5 1 -0.5
v -0.5 0 0.5
v 0.5 0 0.5
v -0.5 0 -0.5
v 0.5 0 -0.5
v 0.1 1.3 0.3
v 0.2 1.3 0.3
v 0.1 1.3 0.2
v 0.2 1.3 0.2
v -0.3 1.4 0.3
v -0.2 1.4 0.3
v -0.3 1.4 0.2
v -0.2 1.4 0.2
v -0.5 1 0.5
v 0.5 1 0.5
v -0.4 1 0.4
v 0.4 1 0.4
v -0.5 1 0.3
v -0.4 1 0.3
v -0.5 1 0
v -0.4 1 0
v -0.4 1 -0.4
v 0.4 1 -0.4
v -0.5 1 -0.5
v 0.5 1 -0.5
v -0.4 1.1 0.4
v -0.3 1.1 0.4
v 0.1 1.1 0.4
v 0.2 1.1 0.4
v 0.3 1.1 0.4
v 0.4 1.1 0.4
v -0.5 1.1 0.3
v -0.4 1.1 0.3
v -0.3 1.1 0.3
v 0.1 1.1 0.3
v 0.2 1.1 0.3
v 0.3 1.1 0.2
v 0.4 1.1 0.2
v -0.5 1.1 0
v -0.4 1.1 0
v -0.3 1.1 0
v 0.3 1.1 -0.2
v 0.4 1.1 -0.2
v -0.3 1.1 -0.3
v 0 1.1 -0.3
v 0.1 1.1 -0.3
v 0.3 1.1 -0.3
v -0.4 1.1 -0.4
v 0 1.1 -0.4
v 0.1 1.1 -0.4
v 0.4 1.1 -0.4
v -0.3 1.2 0.4
v -0.2 1.2 0.4
v -0.4 1.2 0.3
v -0.3 1.2 0.3
v -0.2 1.2 0.3
v 0.1 1.2 0.3
v 0.2 1.2 0.3
v -0.4 1.2 0.2
v -0.3 1.2 0.2
v 0.1 1.2 0.2
v 0.2 1.2 0.2
v 0.3 1.2 0.2
v 0.4 1.2 0.2
v 0.3 1.2 0
v 0.4 1.2 0
v 0.2 1.2 -0.1
v 0.4 1.2 -0.1
v -0.3 1.2 -0.2
v -0.2 1.2 -0.2
v -0.1 1.2 -0.2
v 0.1 1.2 -0.2
v 0.3 1.2 -0.2
v 0.4 1.2 -0.2
v -0.3 1.2 -0.3
v -0.2 1.2 -0.3
v -0.1 1.2 -0.3
v 0 1.2 -0.3
v 0.1 1.2 -0.3
v 0.2 1.2 -0.3
v 0.3 1.2 -0.3
v 0 1.2 -0.4
v 0.1 1.2 -0.4
v 0.2 1.3 0.4
v 0.3 1.3 0.4
v -0.3 1.3 0.3
v -0.2 1.3 0.3
v 0.2 1.3 0.3
v -0.3 1.3 0.2
v -0.2 1.3 0.2
v 0.2 1.3 0.1
v 0.3 1.3 0.1
v 0.2 1.3 0
v 0.3 1.3 0
v 0.4 1.3 0
v 0.1 1.3 -0.1
v 0.2 1.3 -0.1
v 0.4 1.3 -0.1
v -0.2 1.3 -0.2
v -0.1 1.3 -0.2
v 0.1 1.3 -0.2
v -0.2 1.3 -0.3
v -0.1 1.3 -0.3
v 0.1 1.3 -0.3
v 0.2 1.3 -0.3
v -0.2 1.4 0.4
v 0.1 1.4 0.4
v -0.2 1.4 0.3
v 0.1 1.4 0.3
v 0.2 1.4 0.3
v 0.1 1.4 0.2
v 0.2 1.4 0.2
v 0.2 1.4 0.1
v 0.3 1.4 0.1
v 0.1 1.4 0
v 0.2 1.4 0
v 0.3 1.4 0
v -0.3 1.4 -0.1
v -0.1 1.4 -0.1
v 0.1 1.4 -0.1
v 0.2 1.4 -0.1
v -0.3 1.4 -0.2
v -0.1 1.4 -0.2
v 0.1 1.4 -0.2
v -0.3 1.5 0.3
v 0.1 1.5 0.3
v -0.4 1.5 0.2
v -0.3 1.5 0.2
v 0.1 1.5 0.2
v 0.2 1.5 0.2
v -0.3 1.5 0.1
v 0.1 1.5 0.1
v -0.4 1.5 0
v -0.3 1.5 0
v 0.1 1.5 0
v 0.2 1.5 0
v -0.3 1.5 -0.1
v 0.1 1.5 -0.1
v -0.3 1.6 0.2
v 0.1 1.6 0.2
v -0.3 1.6 0.1
v 0.1 1.6 0.1

# faces
f 3/1/1 2/1/1 1/1/1
f 4/1/1 2/1/1 3/1/1
f 5/3/1 4/3/1 3/3/1
f 6/3/1 4/3/1 5/3/1
f 7/3/1 4/3/1 6/3/1
f 8/3/1 4/3/1 7/3/1
f 9/3/1 7/3/1 6/3/1
f 10/3/1 7/3/1 9/3/1
f 15/3/1 12/3/1 11/3/1
f 16/3/1 12/3/1 15/3/1
f 17/3/1 14/3/1 13/3/1
f 18/3/1 14/3/1 17/3/1
f 19/3/1 17/3/1 16/3/1
f 20/3/1 17/3/1 19/3/1
f 21/3/1 17/3/1 20/3/1
f 22/3/1 17/3/1 21/3/1
f 22/2/1 21/2/1 20/2/1
f 23/3/1 17/3/1 22/3/1
f 24/2/1 22/2/1 20/2/1
f 24/2/1 23/2/1 22/2/1
f 25/2/1 23/2/1 24/2/1
f 30/3/1 27/3/1 26/3/1
f 31/3/1 27/3/1 30/3/1
f 33/3/1 29/3/1 28/3/1
f 34/3/1 29/3/1 33/3/1
f 35/3/1 32/3/1 31/3/1
f 36/3/1 32/3/1 35/3/1
f 39/3/1 33/3/1 28/3/1
f 40/3/1 33/3/1 39/3/1
f 41/3/1 33/3/1 40/3/1
f 42/2/1 38/2/1 37/2/1
f 43/2/1 38/2/1 42/2/1
f 45/2/1 40/2/1 39/2/1
f 46/2/1 40/2/1 45/2/1
f 47/2/1 44/2/1 43/2/1
f 48/2/1 44/2/1 47/2/1
f 53/2/1 50/2/1 49/2/1
f 55/3/1 52/3/1 51/3/1
f 56/3/1 52/3/1 55/3/1
f 57/2/1 53/2/1 49/2/1
f 58/3/1 54/3/1 53/3/1
f 58/2/1 53/2/1 57/2/1
f 59/3/1 54/3/1 58/3/1
f 62/3/1 61/3/1 60/3/1
f 63/3/1 61/3/1 62/3/1
f 66/3/1 65/3/1 64/3/1
f 67/3/1 65/3/1 66/3/1
f 70/3/1 69/3/1 68/3/1
f 72/3/1 70/3/1 68/3/1
f 72/3/1 71/3/1 70/3/1
f 73/3/1 71/3/1 72/3/1
f 74/3/1 71/3/1 73/3/1
f 75/3/2 76/3/2 77/3/2
f 77/3/2 76/3/2 78/3/2
f 79/3/2 80/3/2 83/3/2
f 83/3/2 80/3/2 84/3/2
f 81/3/2 82/3/2 86/3/2
f 86/3/2 82/3/2 87/3/2
f 84/3/2 85/3/2 88/3/2
f 83/2/2 84/2/2 88/2/2
f 88/3/2 85/3/2 89/3/2
f 83/2/2 88/2/2 92/2/2
f 92/2/2 88/2/2 93/2/2
f 90/2/2 91/2/2 96/2/2
f 96/2/2 91/2/2 97/2/2
f 93/2/2 94/2/2 98/2/2
f 98/2/2 94/2/2 99/2/2
f 95/2/2 96/2/2 101/2/2
f 101/2/2 96/2/2 102/2/2
f 99/2/2 100/2/2 103/2/2
f 103/2/2 100/2/2 104/2/2
f 105/3/2 106/3/2 110/3/2
f 110/3/2 106/3/2 111/3/2
f 107/2/2 108/2/2 112/2/2
f 112/2/2 108/2/2 113/2/2
f 113/2/2 108/2/2 114/2/2
f 109/2/2 110/2/2 115/2/2
f 115/2/2 110/2/2 116/2/2
f 113/2/2 114/2/2 117/2/2
f 114/2/2 115/2/2 117/2/2
f 117/2/2 115/2/2 118/2/2
f 119/3/2 120/3/2 123/3/2
f 121/3/2 122/3/2 125/3/2
f 125/3/2 122/3/2 126/3/2
f 123/3/2 124/3/2 127/3/2
f 119/3/2 123/3/2 127/3/2
f 127/3/2 124/3/2 128/3/2
f 128/3/2 124/3/2 129/3/2
f 128/2/2 129/2/2 130/2/2
f 130/2/2 129/2/2 131/2/2
f 132/3/2 133/3/2 134/3/2
f 134/3/2 133/3/2 135/3/2
f 135/3/2 133/3/2 136/3/2
f 136/3/2 133/3/2 137/3/2
f 135/3/2 136/3/2 138/3/2
f 138/3/2 136/3/2 139/3/2
f 139/3/2 136/3/2 140/3/2
f 140/3/2 136/3/2 141/3/2
f 139/3/2 140/3/2 142/3/2
f 142/3/2 140/3/2 143/3/2
f 144/1/2 145/1/2 146/1/2
f 146/1/2 145/1/2 147/1/2
f 146/3/2 147/3/2 148/3/2
f 148/3/2 147/3/2 149/3/2
f 153/1/3 151/1/3 150/1/3
f 154/3/3 152/3/3 151/3/3
f 154/1/3 151/1/3 153/1/3
f 155/3/3 152/3/3 154/3/3
f 158/3/3 157/3/3 156/3/3
f 160/3/3 158/3/3 156/3/3
f 160/3/3 159/3/3 158/3/3
f 161/3/3 159/3/3 160/3/3
f 163/3/3 160/3/3 156/3/3
f 163/2/3 162/2/3 161/2/3
f 163/2/3 161/2/3 160/2/3
f 164/2/3 162/2/3 163/2/3
f 165/3/3 163/3/3 156/3/3
f 165/3/3 164/3/3 163/3/3
f 166/2/3 162/2/3 164/2/3
f 166/3/3 164/3/3 165/3/3
f 167/2/3 162/2/3 166/2/3
f 168/3/3 165/3/3 156/3/3
f 170/3/3 168/3/3 156/3/3
f 170/3/3 169/3/3 168/3/3
f 171/3/3 169/3/3 170/3/3
f 172/3/3 170/3/3 156/3/3
f 173/3/3 170/3/3 172/3/3
f 176/3/3 175/3/3 174/3/3
f 177/3/3 175/3/3 176/3/3
f 179/3/3 178/3/3 177/3/3
f 180/3/3 178/3/3 179/3/3
f 184/3/3 181/3/3 180/3/3
f 185/3/3 181/3/3 184/3/3
f 186/2/3 183/2/3 182/2/3
f 190/2/3 183/2/3 186/2/3
f 191/2/3 183/2/3 190/2/3
f 192/3/3 188/3/3 187/3/3
f 193/3/3 188/3/3 192/3/3
f 194/2/3 190/2/3 189/2/3
f 195/2/3 190/2/3 194/2/3
f 198/2/3 197/2/3 196/2/3
f 199/2/3 197/2/3 198/2/3
f 200/2/3 197/2/3 199/2/3
f 201/2/3 197/2/3 200/2/3
f 203/3/3 200/3/3 199/3/3
f 204/3/3 200/3/3 203/3/3
f 208/2/3 202/2/3 201/2/3
f 209/2/3 202/2/3 208/2/3
f 210/3/3 206/3/3 205/3/3
f 211/3/3 206/3/3 210/3/3
f 212/2/3 208/2/3 207/2/3
f 213/2/3 208/2/3 212/2/3
f 216/3/3 215/3/3 214/3/3
f 217/3/3 215/3/3 216/3/3
f 220/2/3 219/2/3 218/2/3
f 221/2/3 219/2/3 220/2/3
f 224/3/3 223/3/3 222/3/3
f 225/3/3 223/3/3 224/3/3
f 226/2/4 227/2/4 228/2/4
f 228/2/4 227/2/4 229/2/4
f 230/3/4 231/3/4 232/3/4
f 232/3/4 231/3/4 233/3/4
f 233/3/4 234/3/4 236/3/4
f 234/2/4 235/2/4 237/2/4
f 236/3/4 234/3/4 237/3/4
f 237/2/4 235/2/4 238/2/4
f 239/2/4 240/2/4 242/2/4
f 242/2/4 240/2/4 243/2/4
f 241/2/4 242/2/4 244/2/4
f 244/2/4 242/2/4 245/2/4
f 246/2/4 247/2/4 248/2/4
f 248/2/4 247/2/4 250/2/4
f 250/2/4 247/2/4 251/2/4
f 249/2/4 250/2/4 253/2/4
f 253/2/4 250/2/4 254/2/4
f 252/3/4 253/3/4 255/3/4
f 255/3/4 253/3/4 256/3/4
f 257/3/4 258/3/4 259/3/4
f 259/3/4 258/3/4 260/3/4
f 260/3/4 258/3/4 262/3/4
f 262/3/4 258/3/4 263/3/4
f 261/3/4 262/3/4 264/3/4
f 262/2/4 263/2/4 265/2/4
f 264/3/4 262/3/4 265/3/4
f 265/2/4 263/2/4 266/2/4
f 267/3/4 268/3/4 269/3/4
f 269/3/4 268/3/4 270/3/4
f 271/3/4 272/3/4 273/3/4
f 271/3/4 273/3/4 275/3/4
f 273/3/4 274/3/4 275/3/4
f 275/3/4 274/3/4 276/3/4
f 271/3/4 275/3/4 277/3/4
f 277/3/4 275/3/4 278/3/4
f 279/3/4 280/3/4 282/3/4
f 280/3/4 281/3/4 282/3/4
f 282/3/4 281/3/4 283/3/4
f 279/3/4 282/3/4 284/3/4
f 284/3/4 282/3/4 285/3/4
f 286/3/4 287/3/4 288/3/4
f 286/3/4 288/3/4 290/3/4
f 288/3/4 289/3/4 290/3/4
f 290/3/4 289/3/4 291/3/4
f 286/3/4 290/3/4 292/3/4
f 292/3/4 290/3/4 293/3/4
f 294/1/4 295/1/4 297/1/4
f 295/3/4 296/3/4 298/3/4
f 297/1/4 295/1/4 298/1/4
f 298/3/4 296/3/4 299/3/4
f 302/1/5 301/1/5 300/1/5
f 303/1/5 301/1/5 302/1/5
f 306/2/5 305/2/5 304/2/5
f 307/2/5 305/2/5 306/2/5
f 310/2/5 309/2/5 308/2/5
f 311/2/5 309/2/5 310/2/5
f 312/3/6 313/3/6 314/3/6
f 314/3/6 313/3/6 315/3/6
f 312/3/6 314/3/6 316/3/6
f 316/3/6 314/3/6 317/3/6
f 318/3/6 319/3/6 320/3/6
f 315/3/6 313/3/6 321/3/6
f 318/3/6 320/3/6 322/3/6
f 320/3/6 321/3/6 322/3/6
f 321/3/6 313/3/6 323/3/6
f 322/3/6 321/3/6 323/3/6
f 324/3/6 325/3/6 331/3/6
f 331/3/6 325/3/6 332/3/6
f 326/3/6 327/3/6 333/3/6
f 333/3/6 327/3/6 334/3/6
f 328/3/6 329/3/6 335/3/6
f 335/3/6 329/3/6 336/3/6
f 330/3/6 331/3/6 337/3/6
f 337/3/6 331/3/6 338/3/6
f 338/3/6 339/3/6 342/3/6
f 340/3/6 341/3/6 345/3/6
f 342/3/6 343/3/6 346/3/6
f 338/3/6 342/3/6 346/3/6
f 346/3/6 343/3/6 347/3/6
f 344/3/6 345/3/6 348/3/6
f 345/3/6 341/3/6 349/3/6
f 348/3/6 345/3/6 349/3/6
f 350/3/6 351/3/6 353/3/6
f 353/3/6 351/3/6 354/3/6
f 352/3/6 353/3/6 357/3/6
f 357/3/6 353/3/6 358/3/6
f 355/3/6 356/3/6 359/3/6
f 359/3/6 356/3/6 360/3/6
f 361/3/6 362/3/6 363/3/6
f 363/3/6 362/3/6 364/3/6
f 365/3/6 366/3/6 371/3/6
f 371/3/6 366/3/6 372/3/6
f 367/3/6 368/3/6 373/3/6
f 373/3/6 368/3/6 374/3/6
f 369/3/6 370/3/6 375/3/6
f 375/3/6 370/3/6 376/3/6
f 376/3/6 370/3/6 377/3/6
f 365/3/6 371/3/6 378/3/6
f 378/3/6 371/3/6 379/3/6
f 376/3/6 377/3/6 380/3/6
f 380/3/6 377/3/6 381/3/6
f 382/3/6 383/3/6 386/3/6
f 384/3/6 385/3/6 387/3/6
f 387/3/6 385/3/6 388/3/6
f 386/3/6 383/3/6 389/3/6
f 389/3/6 383/3/6 390/3/6
f 391/3/6 392/3/6 395/3/6
f 392/3/6 393/3/6 395/3/6
f 395/3/6 393/3/6 396/3/6
f 394/3/6 395/3/6 399/3/6
f 397/3/6 398/3/6 400/3/6
f 400/3/6 398/3/6 401/3/6
f 399/3/6 395/3/6 402/3/6
f 402/3/6 395/3/6 403/3/6
f 404/2/6 405/2/6 406/2/6
f 406/2/6 405/2/6 407/2/6
f 407/2/6 408/2/6 409/2/6
f 409/2/6 408/2/6 410/2/6
f 411/2/6 412/2/6 414/2/6
f 414/2/6 412/2/6 415/2/6
f 413/2/6 414/2/6 418/2/6
f 418/2/6 414/2/6 419/2/6
f 416/3/6 417/3/6 420/3/6
f 417/2/6 418/2/6 421/2/6
f 420/3/6 417/3/6 421/3/6
f 421/2/6 418/2/6 422/2/6
f 423/2/6 424/2/6 426/2/6
f 426/2/6 424/2/6 427/2/6
f 425/2/6 426/2/6 429/2/6
f 427/2/6 428/2/6 430/2/6
f 425/2/6 429/2/6 431/2/6
f 429/2/6 430/2/6 431/2/6
f 431/2/6 430/2/6 432/2/6
f 430/2/6 428/2/6 433/2/6
f 432/2/6 430/2/6 433/2/6
f 433/2/6 428/2/6 434/2/6
f 432/2/6 433/2/6 435/2/6
f 435/2/6 433/2/6 436/2/6
f 437/2/6 438/2/6 439/2/6
f 439/2/6 438/2/6 440/2/6
