# MagicaVoxel @ Ephtracy

# group
o 

# material
mtllib Sea.mtl
usemtl palette

# normals
vn -1 0 0
vn 1 0 0
vn 0 0 1
vn 0 0 -1
vn 0 -1 0
vn 0 1 0

# texcoords
vt 0.369141 0.5
vt 0.615234 0.5
vt 0.638672 0.5

# verts
v -0.5 0 0.5
v -0.5 0 -0.5
v -0.5 0.9 0.5
v -0.5 0.9 -0.2
v -0.5 0.9 -0.4
v -0.5 0.9 -0.5
v -0.5 1 0.5
v -0.5 1 -0.2
v -0.5 1 -0.4
v -0.5 1 -0.5
v 0.5 0 0.5
v 0.5 0 -0.5
v 0.5 0.9 0.5
v 0.5 0.9 -0.2
v 0.5 0.9 -0.4
v 0.5 0.9 -0.5
v 0.5 1 0.5
v 0.5 1 -0.2
v 0.5 1 -0.4
v 0.5 1 -0.5
v -0.5 0 0.5
v -0.5 0.9 0.5
v -0.5 1 0.5
v -0.3 0.9 0.5
v -0.3 1 0.5
v -0.2 0.9 0.5
v -0.2 1 0.5
v 0.5 0 0.5
v 0.5 0.9 0.5
v 0.5 1 0.5
v -0.5 0 -0.5
v -0.5 0.9 -0.5
v -0.5 1 -0.5
v -0.3 0.9 -0.5
v -0.3 1 -0.5
v -0.2 0.9 -0.5
v -0.2 1 -0.5
v 0.5 0 -0.5
v 0.5 0.9 -0.5
v 0.5 1 -0.5
v -0.5 0 0.5
v 0.5 0 0.5
v -0.5 0 -0.5
v 0.5 0 -0.5
v -0.5 1 0.5
v -0.3 1 0.5
v -0.2 1 0.5
v 0.5 1 0.5
v -0.2 1 0.4
v -0.1 1 0.4
v 0.2 1 0.4
v 0.4 1 0.4
v -0.3 1 0.3
v -0.2 1 0.3
v 0.2 1 0.3
v 0.3 1 0.3
v -0.2 1 0.2
v -0.1 1 0.2
v 0.3 1 0.2
v 0.4 1 0.2
v 0.2 1 0.1
v 0.3 1 0.1
v -0.2 1 0
v -0.1 1 0
v 0.2 1 0
v 0.3 1 0
v -0.1 1 -0.1
v 0 1 -0.1
v 0.2 1 -0.1
v 0.4 1 -0.1
v -0.5 1 -0.2
v -0.4 1 -0.2
v -0.2 1 -0.2
v -0.1 1 -0.2
v 0 1 -0.2
v 0.1 1 -0.2
v 0.2 1 -0.2
v 0.3 1 -0.2
v 0.4 1 -0.2
v 0.5 1 -0.2
v -0.4 1 -0.3
v -0.3 1 -0.3
v -0.1 1 -0.3
v 0.1 1 -0.3
v 0.3 1 -0.3
v 0.4 1 -0.3
v -0.5 1 -0.4
v -0.3 1 -0.4
v -0.2 1 -0.4
v 0.4 1 -0.4
v 0.5 1 -0.4
v -0.5 1 -0.5
v -0.3 1 -0.5
v -0.2 1 -0.5
v 0.5 1 -0.5

# faces
f 3/1/1 2/1/1 1/1/1
f 4/1/1 2/1/1 3/1/1
f 5/1/1 2/1/1 4/1/1
f 6/1/1 2/1/1 5/1/1
f 7/3/1 4/3/1 3/3/1
f 8/2/1 5/2/1 4/2/1
f 8/3/1 4/3/1 7/3/1
f 9/3/1 6/3/1 5/3/1
f 9/2/1 5/2/1 8/2/1
f 10/3/1 6/3/1 9/3/1
f 11/1/2 12/1/2 13/1/2
f 13/1/2 12/1/2 14/1/2
f 14/1/2 12/1/2 15/1/2
f 15/1/2 12/1/2 16/1/2
f 13/3/2 14/3/2 17/3/2
f 14/2/2 15/2/2 18/2/2
f 17/3/2 14/3/2 18/3/2
f 15/3/2 16/3/2 19/3/2
f 18/2/2 15/2/2 19/2/2
f 19/3/2 16/3/2 20/3/2
f 24/1/3 22/1/3 21/1/3
f 24/3/3 23/3/3 22/3/3
f 25/3/3 23/3/3 24/3/3
f 26/1/3 24/1/3 21/1/3
f 26/2/3 25/2/3 24/2/3
f 27/2/3 25/2/3 26/2/3
f 28/1/3 26/1/3 21/1/3
f 29/3/3 27/3/3 26/3/3
f 29/1/3 26/1/3 28/1/3
f 30/3/3 27/3/3 29/3/3
f 31/1/4 32/1/4 34/1/4
f 32/3/4 33/3/4 34/3/4
f 34/3/4 33/3/4 35/3/4
f 31/1/4 34/1/4 36/1/4
f 34/2/4 35/2/4 36/2/4
f 36/2/4 35/2/4 37/2/4
f 31/1/4 36/1/4 38/1/4
f 36/3/4 37/3/4 39/3/4
f 38/1/4 36/1/4 39/1/4
f 39/3/4 37/3/4 40/3/4
f 43/1/5 42/1/5 41/1/5
f 44/1/5 42/1/5 43/1/5
f 46/2/6 47/2/6 49/2/6
f 47/3/6 48/3/6 49/3/6
f 49/3/6 48/3/6 50/3/6
f 50/3/6 48/3/6 51/3/6
f 51/3/6 48/3/6 52/3/6
f 45/3/6 46/3/6 53/3/6
f 46/2/6 49/2/6 53/2/6
f 49/2/6 50/2/6 53/2/6
f 53/2/6 50/2/6 54/2/6
f 51/2/6 52/2/6 55/2/6
f 50/3/6 51/3/6 55/3/6
f 55/2/6 52/2/6 56/2/6
f 54/2/6 50/2/6 57/2/6
f 53/3/6 54/3/6 57/3/6
f 55/3/6 56/3/6 58/3/6
f 57/2/6 50/2/6 58/2/6
f 50/3/6 55/3/6 58/3/6
f 56/2/6 52/2/6 59/2/6
f 58/3/6 56/3/6 59/3/6
f 52/3/6 48/3/6 60/3/6
f 59/2/6 52/2/6 60/2/6
f 58/3/6 59/3/6 61/3/6
f 57/3/6 58/3/6 61/3/6
f 59/3/6 60/3/6 61/3/6
f 61/3/6 60/3/6 62/3/6
f 53/3/6 57/3/6 63/3/6
f 57/3/6 61/3/6 63/3/6
f 63/3/6 61/3/6 64/3/6
f 61/2/6 62/2/6 65/2/6
f 64/3/6 61/3/6 65/3/6
f 62/3/6 60/3/6 66/3/6
f 65/2/6 62/2/6 66/2/6
f 64/3/6 65/3/6 67/3/6
f 63/2/6 64/2/6 67/2/6
f 65/3/6 66/3/6 67/3/6
f 67/3/6 66/3/6 68/3/6
f 68/3/6 66/3/6 69/3/6
f 60/3/6 48/3/6 70/3/6
f 69/3/6 66/3/6 70/3/6
f 66/3/6 60/3/6 70/3/6
f 45/3/6 53/3/6 71/3/6
f 53/3/6 63/3/6 71/3/6
f 71/3/6 63/3/6 72/3/6
f 67/2/6 68/2/6 73/2/6
f 72/3/6 63/3/6 73/3/6
f 63/2/6 67/2/6 73/2/6
f 73/2/6 68/2/6 74/2/6
f 68/3/6 69/3/6 75/3/6
f 74/2/6 68/2/6 75/2/6
f 75/3/6 69/3/6 76/3/6
f 69/2/6 70/2/6 77/2/6
f 76/3/6 69/3/6 77/3/6
f 77/2/6 70/2/6 78/2/6
f 70/3/6 48/3/6 79/3/6
f 78/2/6 70/2/6 79/2/6
f 79/3/6 48/3/6 80/3/6
f 73/3/6 74/3/6 81/3/6
f 71/2/6 72/2/6 81/2/6
f 72/3/6 73/3/6 81/3/6
f 81/3/6 74/3/6 82/3/6
f 75/2/6 76/2/6 83/2/6
f 82/3/6 74/3/6 83/3/6
f 74/2/6 75/2/6 83/2/6
f 77/3/6 78/3/6 84/3/6
f 83/2/6 76/2/6 84/2/6
f 76/3/6 77/3/6 84/3/6
f 79/2/6 80/2/6 85/2/6
f 84/3/6 78/3/6 85/3/6
f 78/2/6 79/2/6 85/2/6
f 85/2/6 80/2/6 86/2/6
f 81/2/6 82/2/6 87/2/6
f 71/2/6 81/2/6 87/2/6
f 82/3/6 83/3/6 88/3/6
f 87/2/6 82/2/6 88/2/6
f 83/3/6 84/3/6 88/3/6
f 84/3/6 85/3/6 88/3/6
f 85/3/6 86/3/6 88/3/6
f 88/3/6 86/3/6 89/3/6
f 86/2/6 80/2/6 90/2/6
f 89/3/6 86/3/6 90/3/6
f 90/2/6 80/2/6 91/2/6
f 87/3/6 88/3/6 92/3/6
f 88/2/6 89/2/6 93/2/6
f 92/3/6 88/3/6 93/3/6
f 89/3/6 90/3/6 94/3/6
f 93/2/6 89/2/6 94/2/6
f 90/3/6 91/3/6 94/3/6
f 94/3/6 91/3/6 95/3/6
